<svg width="152" height="152" viewBox="0 0 152 152" fill="none" xmlns="http://www.w3.org/2000/svg">
<g clip-path="url(#clip0_4080_3984)">
<mask id="mask0_4080_3984" style="mask-type:luminance" maskUnits="userSpaceOnUse" x="-35" y="-35" width="221" height="221">
<path d="M185.961 -34.0391L-34.0391 -34.0391L-34.0391 185.961H185.961V-34.0391Z" fill="white"/>
</mask>
<g mask="url(#mask0_4080_3984)">
<path d="M117.434 88.2446C117.434 90.9651 116.917 93.4136 115.883 95.5901C114.85 97.712 113.381 99.562 111.476 101.14C109.626 102.664 107.369 103.834 104.702 104.649C102.09 105.466 99.2067 105.874 96.0508 105.874C92.1333 105.874 88.8143 105.411 86.0936 104.487C83.3732 103.506 81.1423 102.365 79.4012 101.058V91.9173C81.1423 93.3865 83.3187 94.7467 85.9304 95.9982C88.5965 97.2496 91.7796 97.8753 95.4795 97.8753C99.3427 97.8753 102.281 97.0047 104.294 95.2636C106.361 93.5225 107.396 91.1284 107.396 88.0814C107.396 84.9799 106.443 82.6675 104.538 81.144C102.635 79.566 99.6691 78.7771 95.6427 78.7771H88.4605V70.534H96.0508C98.8257 70.534 101.084 69.7994 102.825 68.3303C104.62 66.8068 105.519 64.6575 105.519 61.8826C105.519 59.3797 104.675 57.4209 102.989 56.0063C101.301 54.5371 98.8802 53.8026 95.7244 53.8026C92.4054 53.8026 89.5759 54.4011 87.2363 55.5982C84.8967 56.7952 82.7203 58.2099 80.707 59.8422V50.7828C82.6113 49.3682 84.815 48.1711 87.3179 47.1917C89.8752 46.2123 93.031 45.7227 96.7854 45.7227C99.6148 45.7227 102.172 46.1035 104.458 46.8653C106.742 47.627 108.674 48.688 110.252 50.0483C111.83 51.4086 113.054 53.0409 113.924 54.9452C114.795 56.8496 115.231 58.9444 115.231 61.2297C115.231 63.134 114.904 64.8208 114.252 66.2898C113.652 67.759 112.837 69.0648 111.802 70.2075C110.769 71.2956 109.571 72.1935 108.211 72.9008C106.906 73.5537 105.519 74.0161 104.049 74.2882C105.845 74.5059 107.531 74.9955 109.11 75.7574C110.741 76.4647 112.156 77.4169 113.353 78.6139C114.605 79.7565 115.584 81.144 116.292 82.7763C117.053 84.4086 117.434 86.2314 117.434 88.2446Z" fill="white"/>
<path d="M72.1585 105.057H34.3703V95.6721C39.2673 91.8635 43.4568 88.4899 46.9391 85.5517C50.4214 82.6135 53.2508 79.9203 55.4272 77.4717C57.6581 74.9689 59.2904 72.6291 60.3241 70.4528C61.358 68.2219 61.8748 65.9095 61.8748 63.5154C61.8748 60.5773 60.9771 58.2375 59.1816 56.4964C57.4403 54.7553 54.9375 53.8847 51.6729 53.8847C48.7347 53.8847 45.9325 54.5921 43.2665 56.0068C40.6548 57.367 38.2062 59.1354 35.921 61.3118V51.9259C38.0974 50.0759 40.5187 48.5797 43.1848 47.437C45.8509 46.2945 49.0339 45.7231 52.7338 45.7231C55.672 45.7231 58.3382 46.1312 60.7322 46.9474C63.1263 47.7635 65.1395 48.9334 66.7718 50.4569C68.4586 51.9259 69.7371 53.7487 70.6078 55.9251C71.5327 58.0472 71.9952 60.4413 71.9952 63.1073C71.9952 66.0455 71.4239 68.8205 70.2814 71.4322C69.1387 73.9895 67.4247 76.574 65.1395 79.1857C62.9087 81.7974 60.0793 84.518 56.6514 87.3473C53.2779 90.1767 49.306 93.3052 44.7355 96.7331H72.1585V105.057Z" fill="white"/>
<path d="M113.667 2.19092L38.3543 2.19092C29.6236 2.19092 22.546 9.26855 22.546 17.9993L22.546 133.707C22.546 142.438 29.6236 149.516 38.3543 149.516H113.667C122.397 149.516 129.475 142.438 129.475 133.707V17.9993C129.475 9.26855 122.397 2.19092 113.667 2.19092Z" fill="#FF0101"/>
<path d="M113.667 66.3479H38.3543C29.6236 66.3479 22.5459 73.4255 22.5459 82.1562L22.5459 133.707C22.5459 142.437 29.6236 149.515 38.3543 149.515H113.667C122.397 149.515 129.475 142.437 129.475 133.707V82.1562C129.475 73.4255 122.397 66.3479 113.667 66.3479Z" fill="#E40202"/>
<g filter="url(#filter0_f_4080_3984)">
<path d="M130.29 42.0103L21.7404 42.0103L21.7404 139.971H130.29V42.0103Z" fill="#9A1919"/>
</g>
<g filter="url(#filter1_f_4080_3984)">
<path d="M130.291 13.5461L21.7405 13.5461L21.7405 116.73H130.291V13.5461Z" fill="#B41D1D"/>
</g>
<mask id="mask1_4080_3984" style="mask-type:alpha" maskUnits="userSpaceOnUse" x="1" y="16" width="150" height="120">
<path d="M2.36463 33.9612C0.119955 24.9646 6.92533 16.2527 16.1978 16.2527L135.829 16.2527C145.101 16.2527 151.907 24.9646 149.662 33.9612L139.21 75.8526L149.662 117.744C151.907 126.741 145.101 135.452 135.829 135.452H16.1978C6.92533 135.452 0.119955 126.741 2.36463 117.744L12.8164 75.8526L2.36463 33.9612Z" fill="#FF4545"/>
</mask>
<g mask="url(#mask1_4080_3984)">
<path d="M2.84531 35.888C0.356492 25.9123 7.90222 16.2527 18.1836 16.2527L133.842 16.2527C144.125 16.2527 151.671 25.9123 149.181 35.888L139.21 75.8526L149.181 115.817C151.671 125.792 144.125 135.452 133.842 135.452H18.1836C7.90222 135.452 0.356492 125.792 2.84531 115.817L12.8164 75.8526L2.84531 35.888Z" fill="#FF0000"/>
<g opacity="0.5" filter="url(#filter2_f_4080_3984)">
<path d="M146.645 74.3578L151.703 33.811C152.965 23.6931 145.076 14.7581 134.879 14.7581L17.1471 14.7581C6.95073 14.7581 -0.938953 23.6931 0.32323 33.811L5.38135 74.3578" stroke="white" stroke-width="5.93399"/>
</g>
</g>
</g>
<path d="M59.0681 43.18V99.7654H47.1045V54.5358H46.773L33.8147 62.6589V52.0491L47.8229 43.18H59.0681ZM94.7034 101.009C89.9511 100.99 85.8619 99.8206 82.4358 97.4998C79.0282 95.1789 76.4034 91.8173 74.5614 87.415C72.7379 83.0126 71.8353 77.717 71.8537 71.528C71.8537 65.3573 72.7655 60.0985 74.589 55.7515C76.431 51.4044 79.0558 48.0981 82.4635 45.8324C85.8895 43.5484 89.9695 42.4064 94.7034 42.4064C99.4372 42.4064 103.508 43.5484 106.916 45.8324C110.342 48.1165 112.976 51.432 114.818 55.7791C116.66 60.1077 117.571 65.3573 117.553 71.528C117.553 77.7354 116.632 83.0403 114.79 87.4426C112.967 91.8449 110.351 95.2065 106.943 97.5274C103.536 99.8483 99.4557 101.009 94.7034 101.009ZM94.7034 91.0897C97.9452 91.0897 100.533 89.4595 102.467 86.1993C104.401 82.939 105.359 78.0485 105.341 71.528C105.341 67.2362 104.899 63.6627 104.015 60.8077C103.149 57.9526 101.915 55.8067 100.312 54.37C98.7281 52.9332 96.8585 52.2149 94.7034 52.2149C91.4799 52.2149 88.9012 53.8266 86.9671 57.0501C85.033 60.2735 84.0568 65.0995 84.0384 71.528C84.0384 75.875 84.4712 79.5037 85.3369 82.414C86.2211 85.3059 87.4644 87.4794 89.0669 88.9346C90.6695 90.3713 92.5483 91.0897 94.7034 91.0897Z" fill="white"/>
</g>
<defs>
<filter id="filter0_f_4080_3984" x="0.547575" y="20.8174" width="150.936" height="140.346" filterUnits="userSpaceOnUse" color-interpolation-filters="sRGB">
<feFlood flood-opacity="0" result="BackgroundImageFix"/>
<feBlend mode="normal" in="SourceGraphic" in2="BackgroundImageFix" result="shape"/>
<feGaussianBlur stdDeviation="10.5964" result="effect1_foregroundBlur_4080_3984"/>
</filter>
<filter id="filter1_f_4080_3984" x="0.547667" y="-7.6467" width="150.936" height="145.57" filterUnits="userSpaceOnUse" color-interpolation-filters="sRGB">
<feFlood flood-opacity="0" result="BackgroundImageFix"/>
<feBlend mode="normal" in="SourceGraphic" in2="BackgroundImageFix" result="shape"/>
<feGaussianBlur stdDeviation="10.5964" result="effect1_foregroundBlur_4080_3984"/>
</filter>
<filter id="filter2_f_4080_3984" x="-15.4928" y="-0.92469" width="183.011" height="88.3655" filterUnits="userSpaceOnUse" color-interpolation-filters="sRGB">
<feFlood flood-opacity="0" result="BackgroundImageFix"/>
<feBlend mode="normal" in="SourceGraphic" in2="BackgroundImageFix" result="shape"/>
<feGaussianBlur stdDeviation="6.35785" result="effect1_foregroundBlur_4080_3984"/>
</filter>
<clipPath id="clip0_4080_3984">
<rect width="152" height="152" fill="white"/>
</clipPath>
</defs>
</svg>
