<svg width="80" height="61" viewBox="0 0 80 61" fill="none" xmlns="http://www.w3.org/2000/svg">
<g clip-path="url(#clip0_4047_3023)">
<path d="M5.45455 61H18.1818L18.1818 29.5758L0 15.7122L0 55.4546C0 58.5231 2.44545 61 5.45455 61Z" fill="#4285F4"/>
<path d="M61.8182 61H74.5454C77.5636 61 80 58.5138 80 55.4546V15.7122L61.8182 29.5758" fill="#34A853"/>
<path d="M61.8182 5.54544V29.5757L80 15.7121V8.31817C80 1.46029 72.3 -2.44926 66.9091 1.66362" fill="#FBBC04"/>
<path d="M18.1818 29.5757V5.54541L40 22.1818L61.8182 5.54541V29.5757L40 46.2121" fill="#EA4335"/>
<path d="M0 8.31817L0 15.7121L18.1818 29.5757V5.54544L13.0909 1.66362C7.69091 -2.44926 0 1.46029 0 8.31817Z" fill="#C5221F"/>
</g>
<defs>
<clipPath id="clip0_4047_3023">
<rect width="80" height="61" fill="white"/>
</clipPath>
</defs>
</svg>
