<svg width="14" height="18" viewBox="0 0 14 18" fill="currentColor" xmlns="http://www.w3.org/2000/svg">
<path fill-rule="evenodd" clip-rule="evenodd" d="M2.95268 0.0461995C2.36172 0.205014 1.27144 1.53095 0.697321 2.78904C-0.393494 5.1794 -0.200555 7.76146 1.24809 10.1599C1.37092 10.3633 1.50465 10.5716 1.5453 10.6229C1.58595 10.6742 1.6192 10.7233 1.6192 10.7321C1.6192 10.7409 1.68016 10.8304 1.75467 10.9311L1.89013 11.1142L1.76563 11.3762C0.894833 13.2088 2.23458 15.3656 5.41843 17.2566C7.26626 18.354 7.79891 18.2898 9.99203 16.7053C12.7172 14.7364 13.5586 12.7581 12.3377 11.1899L12.2224 11.0419L12.32 10.9239C14.6531 8.10286 14.5497 4.33108 12.0502 1.07809C11.297 0.0978801 10.9933 -0.100692 10.4639 0.0408308C9.66333 0.25488 9.44489 1.09562 10.0147 1.76982C12.3755 4.56308 12.6293 7.36606 10.7305 9.67499L10.5468 9.89835L10.0911 9.6704C7.79886 8.52383 6.4971 8.52484 3.9423 9.67521C3.44208 9.90046 3.50326 9.90672 3.29387 9.60882C1.43672 6.96683 1.63866 3.92267 3.80976 1.83204C4.12684 1.52672 4.19639 1.38131 4.19639 1.02363C4.19639 0.347093 3.59415 -0.126206 2.95268 0.0461995Z" fill="currentColor"/>
</svg>
