<svg width="77" height="62" viewBox="0 0 77 62" fill="none" xmlns="http://www.w3.org/2000/svg">
<path d="M23.7736 61.3601H67.4223C72.529 61.3601 76.6689 57.2202 76.6689 52.1135V20.8378C76.6689 18.1209 75.3082 15.6264 72.9483 14.2802L50.1118 1.29401C47.0763 -0.437618 43.3505 -0.431249 40.321 1.31075L14.4429 16.1906L14.4429 52.0294C14.4429 57.1826 18.6204 61.3601 23.7736 61.3601Z" fill="#158FDA"/>
<path d="M32.4233 55.4513C32.6671 52.6424 34.4432 50.1982 37.0394 49.0986C37.0394 49.0986 60.6846 35.8189 72.4081 28.9473C76.0365 26.8205 76.6688 22.5087 76.6688 22.5087V52.0137C76.6688 57.1755 72.4843 61.36 67.3225 61.36H38.9794C35.6034 61.36 32.7731 58.8092 32.4233 55.4513Z" fill="url(#paint0_linear_4047_3011)"/>
<path d="M71.6763 13.4658L31.0218 35.9341L39.1281 40.8469C42.1362 42.6699 46.4973 43.6564 49.5641 41.9341L71.2058 29.7803C74.1043 28.1525 76.6688 25.4741 76.6688 20.8375C76.6688 16.1278 73.4206 14.5734 71.6763 13.4658Z" fill="#01459B"/>
<path d="M45.4561 0.0666802C43.6745 0.0624262 41.8919 0.512883 40.2883 1.41828L5.96187 20.7991L18.9814 28.6895L58.9123 6.17875L50.6173 1.44295C49.018 0.529901 47.2376 0.0709372 45.4561 0.0666802Z" fill="#26AEE9"/>
<path d="M58.9123 6.17883L18.9814 28.6896L32.0399 36.6036L72.7491 14.1353C72.4259 13.8933 72.0319 13.669 71.6763 13.466L58.9123 6.17883Z" fill="#0078D3"/>
<path d="M3.72949 11.1642L35.734 11.1607C36.1496 11.1607 36.5611 11.2427 36.9449 11.4021C37.3288 11.5615 37.6773 11.7951 37.9707 12.0895C38.264 12.3839 38.4963 12.7333 38.6543 13.1177C38.8122 13.5022 38.8927 13.914 38.8911 14.3296L38.7724 45.4888C38.7691 46.3494 38.425 47.1737 37.8153 47.7811C37.2057 48.3885 36.3802 48.7296 35.5195 48.7297L3.87108 48.7331C3.43453 48.7332 3.00227 48.647 2.59909 48.4796C2.19592 48.3122 1.82977 48.0668 1.52165 47.7576C1.21353 47.4483 0.969516 47.0812 0.803597 46.6774C0.637679 46.2737 0.553126 45.8411 0.554789 45.4045L0.673641 14.2087C0.676721 13.4003 1.00002 12.6259 1.57276 12.0553C2.1455 11.4847 2.92101 11.1643 3.72949 11.1642Z" fill="url(#paint1_linear_4047_3011)"/>
<path d="M10.48 24.6113C11.2432 22.9591 12.4957 21.5664 14.0767 20.6123C15.8283 19.5977 17.8328 19.0735 19.8697 19.0975C21.756 19.027 23.6255 19.4629 25.274 20.3575C26.8243 21.2251 28.0826 22.5126 28.8959 24.064C29.782 25.7736 30.2404 27.6635 30.2338 29.5794C30.3079 31.5804 29.9 33.5708 29.0428 35.3913C28.2623 37.0245 27.008 38.3994 25.4349 39.3462C25.0769 39.5542 24.708 39.7411 24.33 39.9062C22.9332 40.5164 21.4138 40.8299 19.8739 40.8198C17.9473 40.8964 16.0367 40.4559 14.3504 39.5464C12.7867 38.6779 11.513 37.3891 10.6812 35.8338C9.79042 34.1492 9.32725 32.2807 9.33039 30.3851C9.26226 28.401 9.65526 26.4273 10.48 24.6113ZM14.5317 33.7968C14.9696 34.8264 15.6982 35.7137 16.633 36.3558C17.5847 36.9816 18.7173 37.294 19.8649 37.2473C21.0883 37.2746 22.2879 36.913 23.2824 36.2173C24.1842 35.5476 24.8649 34.635 25.2402 33.5925C25.6597 32.4283 25.8562 31.1991 25.8196 29.9662C25.813 28.7209 25.5896 27.486 25.1589 26.3139C24.7781 25.2555 24.09 24.328 23.1782 23.6439C22.1864 22.9482 20.9786 22.6068 19.758 22.6771C18.5846 22.6665 17.4376 23.0185 16.4818 23.6826C15.5527 24.3576 14.8398 25.2763 14.4264 26.3311C13.5107 28.7485 13.5489 31.4103 14.5335 33.8002L14.5317 33.7968Z" fill="white"/>
<defs>
<linearGradient id="paint0_linear_4047_3011" x1="46.9285" y1="54.4616" x2="76.6688" y2="41.9343" gradientUnits="userSpaceOnUse">
<stop stop-color="#4DE2FB"/>
<stop offset="1" stop-color="#28AEE8"/>
</linearGradient>
<linearGradient id="paint1_linear_4047_3011" x1="19.7317" y1="11.1625" x2="19.6953" y2="48.7314" gradientUnits="userSpaceOnUse">
<stop stop-color="#1582D8"/>
<stop offset="1" stop-color="#0A64CC"/>
</linearGradient>
</defs>
</svg>
