<svg width="15" height="15" viewBox="0 0 15 15" fill="none" xmlns="http://www.w3.org/2000/svg">
<path fill-rule="evenodd" clip-rule="evenodd" d="M9.15857 10.06C9.16209 10.0566 9.16559 10.0532 9.16906 10.0497L12.0571 7.16164C12.7409 6.47788 13.125 5.5505 13.125 4.58352C13.125 2.56988 11.4926 0.9375 9.47898 0.9375C8.51199 0.9375 7.58462 1.32163 6.90085 2.00539L4.43517 4.47107L4.42469 4.48135L2.86247 6.04357C1.93007 6.97597 1.40625 8.24058 1.40625 9.55919C1.40625 12.3051 3.63222 14.531 6.37809 14.531C7.69671 14.531 8.96132 14.0072 9.89372 13.0748L12.8622 10.1063C13.1368 9.83176 13.1368 9.38656 12.8622 9.11197C12.5876 8.83739 12.1424 8.83739 11.8678 9.11197L8.89935 12.0804C8.23067 12.7491 7.32375 13.1248 6.37809 13.1248C4.40887 13.1248 2.8125 11.5284 2.8125 9.55919C2.8125 8.61354 3.18816 7.70661 3.85684 7.03794L4.9967 5.89807L5.00718 5.88781L7.89522 2.99976C8.31526 2.57973 8.88496 2.34375 9.47898 2.34375C10.716 2.34375 11.7187 3.34653 11.7187 4.58352C11.7187 5.17754 11.4828 5.74724 11.0627 6.16727L10.0033 7.22675C9.99973 7.23013 9.99623 7.23356 9.99276 7.23704L7.1852 10.0446C7.0138 10.216 6.78134 10.3123 6.53894 10.3123C6.03419 10.3123 5.625 9.9031 5.625 9.39834C5.625 9.15595 5.72129 8.92348 5.89269 8.75208L8.70025 5.94452C8.97483 5.66994 8.97483 5.22474 8.70025 4.95016C8.42566 4.67557 7.98047 4.67557 7.70588 4.95016L4.89832 7.75772C4.4632 8.19284 4.21875 8.78299 4.21875 9.39834C4.21875 10.6797 5.25754 11.7185 6.53894 11.7185C7.1543 11.7185 7.74445 11.4741 8.17957 11.039L9.15857 10.06Z" fill="#2F2F2F"/>
</svg>
