<svg width="20" height="20" viewBox="0 0 20 20" fill="none" xmlns="http://www.w3.org/2000/svg">
<rect width="20" height="20" rx="3.75" fill="currentColor"/>
<path d="M13.8226 11.084C13.4592 13.5902 10.5766 13.4295 10.0425 11.04C9.81723 9.87372 9.63402 9.25794 9.59717 8.18031V8.20571C9.82606 7.47692 10.7084 6.94925 11.2887 6.80412V10.7808C11.2887 11.5931 11.789 12.2508 12.6018 12.2508C13.3129 12.2508 13.7333 11.747 13.8272 11.0773L13.8226 11.084Z" fill="white"/>
<path d="M13.5541 13.9355C15.98 12.8615 13.3283 6.9669 15.2752 6.12305C14.5418 6.19302 14.0119 6.61132 13.6698 7.25925V10.997C13.6703 11.0962 13.6635 11.1953 13.6496 11.2935L13.6444 11.3251C13.2811 13.8318 10.3984 13.6706 9.86433 11.281C9.63907 10.1148 9.45637 9.49899 9.419 8.42188V11.4283C9.40914 13.0574 10.7166 14.0614 12.4781 14.0614C12.8406 14.066 13.2022 14.0233 13.5536 13.9344L13.5541 13.9355Z" fill="white"/>
<path d="M13.7708 14.0049C14.8685 13.7121 15.4898 12.905 15.4898 11.4983V6.19202C13.545 7.03587 16.1967 12.9304 13.7708 14.0044V14.0049Z" fill="white"/>
<path d="M10.5525 6.65696C4.53179 7.64336 5.0311 10.9846 4.6875 13.8769V5.9375C5.59787 6.02458 6.20929 6.44081 6.52122 7.38885C7.4482 6.73937 8.52103 6.22103 10.5525 6.65696Z" fill="white"/>
<path d="M10.756 6.84257C4.73425 7.82897 5.23251 11.1728 4.88892 14.0625H6.56693V11.0095C6.56226 9.1046 7.66571 8.39759 9.08213 8.39759C9.31362 7.6688 10.0781 6.99807 10.7721 6.84257H10.756Z" fill="white"/>
</svg>
