<svg width="231" height="229" viewBox="0 0 231 229" fill="none" xmlns="http://www.w3.org/2000/svg">
<g clip-path="url(#clip0_4025_2785)">
<path d="M22.8539 92.2101C32.224 54.404 36.909 35.5009 49.6167 24.4587C54.2968 20.3636 59.6557 17.1168 65.4523 14.8645C81.2663 8.81302 100.169 13.4981 137.918 22.8539C175.666 32.2096 194.627 36.909 205.669 49.6167C209.764 54.2967 213.011 59.6557 215.263 65.4523C221.315 81.2662 216.63 100.169 207.274 137.918C197.918 175.666 193.219 194.627 180.511 205.669C175.831 209.764 170.472 213.011 164.676 215.263C148.862 221.315 129.959 216.63 92.2102 207.274C54.4616 197.918 35.5009 193.219 24.4587 180.511C20.3636 175.831 17.1169 170.472 14.8646 164.676C8.81307 148.862 13.4981 129.959 22.8539 92.2101Z" fill="url(#paint0_linear_4025_2785)"/>
<path opacity="0.6" d="M105.946 106.687C110.72 107.87 115.55 104.959 116.733 100.185C117.916 95.4103 115.005 90.5807 110.231 89.3974C105.457 88.2141 100.627 91.1252 99.4436 95.8996C98.2603 100.674 101.171 105.504 105.946 106.687Z" fill="white"/>
<path d="M82.0129 149.692C104.293 155.214 126.831 141.629 132.353 119.349C137.875 97.0688 124.29 74.5306 102.01 69.0086C79.7298 63.4865 57.1916 77.0717 51.6695 99.3519C46.1475 121.632 59.7327 144.17 82.0129 149.692Z" stroke="white" stroke-width="8.90625"/>
<path d="M162.647 145.209C172.196 147.575 181.855 141.753 184.222 132.204C186.588 122.656 180.766 112.996 171.217 110.63C161.669 108.263 152.009 114.085 149.643 123.634C147.276 133.183 153.098 142.842 162.647 145.209Z" fill="#00FF00"/>
</g>
<defs>
<linearGradient id="paint0_linear_4025_2785" x1="-24.0446" y1="200.727" x2="230.128" y2="45.7077" gradientUnits="userSpaceOnUse">
<stop/>
<stop offset="1" stop-color="#31404E"/>
</linearGradient>
<clipPath id="clip0_4025_2785">
<rect width="190" height="190" fill="white" transform="translate(45.7078) rotate(13.92)"/>
</clipPath>
</defs>
</svg>
