<svg width="10" height="10" viewBox="0 0 10 10" fill="none" xmlns="http://www.w3.org/2000/svg">
<g clip-path="url(#clip0_3553_2228)">
<rect width="10" height="10" rx="1.78947" fill="#C4C4C4"/>
<g clip-path="url(#clip1_3553_2228)">
<path d="M5 11.3474C8.58985 11.3474 11.5 8.43726 11.5 4.84741C11.5 1.25756 8.58985 -1.65259 5 -1.65259C1.41015 -1.65259 -1.5 1.25756 -1.5 4.84741C-1.5 8.43726 1.41015 11.3474 5 11.3474Z" fill="url(#paint0_linear_3553_2228)"/>
<path d="M3.008 5.29836L3.73284 7.30463C3.73284 7.30463 3.82347 7.49235 3.92051 7.49235C4.01755 7.49235 5.46087 5.99083 5.46087 5.99083L7.0659 2.89075L3.03386 4.78048L3.008 5.29836Z" fill="#C8DAEA"/>
<path d="M3.96904 5.81274L3.82989 7.29156C3.82989 7.29156 3.77165 7.74468 4.22467 7.29156C4.67769 6.83843 5.11131 6.48902 5.11131 6.48902" fill="#A9C6D8"/>
<path d="M3.02106 5.36989L1.53003 4.88408C1.53003 4.88408 1.35183 4.81178 1.40921 4.64784C1.42102 4.61403 1.44485 4.58527 1.51613 4.53583C1.8465 4.30555 7.63106 2.22643 7.63106 2.22643C7.63106 2.22643 7.79439 2.17139 7.89071 2.208C7.91454 2.21537 7.93599 2.22895 7.95285 2.24733C7.96971 2.26572 7.98139 2.28825 7.98668 2.31262C7.99709 2.35568 8.00144 2.39998 7.99962 2.44423C7.99916 2.48252 7.99452 2.51801 7.99101 2.57365C7.95578 3.14209 6.90148 7.38455 6.90148 7.38455C6.90148 7.38455 6.8384 7.63281 6.61239 7.64131C6.55685 7.6431 6.50152 7.6337 6.4497 7.61365C6.39787 7.5936 6.35061 7.56332 6.31074 7.52462C5.86724 7.14313 4.33435 6.11296 3.99563 5.8864C3.98799 5.88119 3.98156 5.87441 3.97676 5.8665C3.97197 5.8586 3.96892 5.84976 3.96783 5.84057C3.9631 5.8167 3.98906 5.78712 3.98906 5.78712C3.98906 5.78712 6.65822 3.41458 6.72924 3.16551C6.73474 3.14622 6.71397 3.1367 6.68607 3.14515C6.50879 3.21037 3.43559 5.15111 3.09641 5.3653C3.07199 5.37269 3.04619 5.37426 3.02106 5.36989Z" fill="white"/>
</g>
</g>
<defs>
<linearGradient id="paint0_linear_3553_2228" x1="5" y1="11.3474" x2="5" y2="-1.65259" gradientUnits="userSpaceOnUse">
<stop stop-color="#1D93D2"/>
<stop offset="1" stop-color="#38B0E3"/>
</linearGradient>
<clipPath id="clip0_3553_2228">
<rect width="10" height="10" rx="1.78947" fill="white"/>
</clipPath>
<clipPath id="clip1_3553_2228">
<rect width="13" height="13" fill="white" transform="translate(-1.5 -1.65259)"/>
</clipPath>
</defs>
</svg>
