<svg width="21" height="21" viewBox="0 0 21 21" fill="none" xmlns="http://www.w3.org/2000/svg">
<path fill-rule="evenodd" clip-rule="evenodd" d="M9.7045 0.329505C10.1438 -0.109835 10.8562 -0.109835 11.2955 0.329505L15.0455 4.0795C15.4848 4.51884 15.4848 5.23115 15.0455 5.67049C14.6062 6.10983 13.8938 6.10983 13.4545 5.67049L11.625 3.84099V15.375C11.625 15.9963 11.1213 16.5 10.5 16.5C9.87868 16.5 9.375 15.9963 9.375 15.375V3.84099L7.54549 5.67049C7.10615 6.10983 6.39384 6.10983 5.9545 5.67049C5.51516 5.23115 5.51516 4.51884 5.9545 4.0795L9.7045 0.329505ZM4.875 8.25C5.49632 8.25 6 8.75368 6 9.375C6 9.99632 5.49632 10.5 4.875 10.5H4.5C3.25736 10.5 2.25 11.5074 2.25 12.75V16.5C2.25 17.7426 3.25736 18.75 4.5 18.75H16.5C17.7426 18.75 18.75 17.7426 18.75 16.5V12.75C18.75 11.5074 17.7426 10.5 16.5 10.5H16.125C15.5037 10.5 15 9.99632 15 9.375C15 8.75368 15.5037 8.25 16.125 8.25H16.5C18.9853 8.25 21 10.2647 21 12.75V16.5C21 18.9853 18.9853 21 16.5 21H4.5C2.01472 21 0 18.9853 0 16.5V12.75C0 10.2647 2.01472 8.25 4.5 8.25H4.875Z" fill="#2F2F2F"/>
</svg>
