<svg width="40" height="40" viewBox="0 0 40 40" fill="none" xmlns="http://www.w3.org/2000/svg">
<g clip-path="url(#clip0_5793_7625)">
<rect width="40" height="40" rx="20" fill="#FFC550"/>
<path d="M5.64941 13.7724C5.64941 11.3913 7.57968 9.46106 9.96079 9.46106H30.0396C32.4207 9.46106 34.351 11.3913 34.351 13.7724V26.2275C34.351 28.6086 32.4207 30.5389 30.0396 30.5389H9.96079C7.57969 30.5389 5.64941 28.6086 5.64941 26.2275V13.7724Z" fill="white"/>
<path d="M5.64941 13.7724C5.64941 11.3913 7.57968 9.46106 9.96079 9.46106H30.0396C32.4207 9.46106 34.351 11.3913 34.351 13.7724V26.2275C34.351 28.6086 32.4207 30.5389 30.0396 30.5389H9.96079C7.57969 30.5389 5.64941 28.6086 5.64941 26.2275V13.7724Z" fill="white"/>
<g opacity="0.5" filter="url(#filter0_f_5793_7625)">
<path d="M5.64941 13.1157L17.5626 24.6787C18.9204 25.9965 21.0798 25.9965 22.4376 24.6787L34.3508 13.1157H5.64941Z" fill="#808080"/>
</g>
<path d="M30.0388 9.46106C31.8502 9.46106 33.4001 10.5783 34.0383 12.1612C34.1787 12.5095 34.2285 12.8914 34.1611 13.2608C34.0305 13.977 33.6568 14.6691 32.9958 15.2169L22.1394 24.214C20.8982 25.2427 19.1012 25.2427 17.8601 24.214L7.00362 15.2169C6.34267 14.6691 5.969 13.977 5.83832 13.2608C5.77091 12.8914 5.82079 12.5095 5.96119 12.1612C6.59924 10.5785 8.14853 9.46125 9.95968 9.46106H30.0388Z" fill="#FF5B10"/>
</g>
<defs>
<filter id="filter0_f_5793_7625" x="3.66844" y="11.1348" width="32.6631" height="16.5133" filterUnits="userSpaceOnUse" color-interpolation-filters="sRGB">
<feFlood flood-opacity="0" result="BackgroundImageFix"/>
<feBlend mode="normal" in="SourceGraphic" in2="BackgroundImageFix" result="shape"/>
<feGaussianBlur stdDeviation="0.990486" result="effect1_foregroundBlur_5793_7625"/>
</filter>
<clipPath id="clip0_5793_7625">
<rect width="40" height="40" rx="20" fill="white"/>
</clipPath>
</defs>
</svg>
