<svg width="152" height="152" viewBox="0 0 152 152" fill="none" xmlns="http://www.w3.org/2000/svg">
<g clip-path="url(#clip0_4080_3984)">
<mask id="mask0_4080_3984" style="mask-type:luminance" maskUnits="userSpaceOnUse" x="0" y="0" width="153" height="153">
<path d="M152.156 0L0 0L0 152.156H152.156V0Z" fill="white"/>
</mask>
<g mask="url(#mask0_4080_3984)">
<path d="M117.434 88.2448C117.434 90.9652 116.917 93.4137 115.883 95.5902C114.85 97.7121 113.381 99.5621 111.476 101.14C109.626 102.664 107.369 103.834 104.702 104.649C102.09 105.466 99.2067 105.874 96.0508 105.874C92.1333 105.874 88.8142 105.411 86.0936 104.487C83.3731 103.506 81.1423 102.365 79.4012 101.058V91.9174C81.1423 93.3866 83.3187 94.7468 85.9304 95.9983C88.5965 97.2497 91.7795 97.8754 95.4794 97.8754C99.3427 97.8754 102.281 97.0048 104.294 95.2637C106.361 93.5226 107.396 91.1285 107.396 88.0815C107.396 84.98 106.443 82.6676 104.538 81.1441C102.635 79.5662 99.6691 78.7772 95.6427 78.7772H88.4605V70.5341H96.0508C98.8257 70.5341 101.084 69.7995 102.825 68.3305C104.62 66.807 105.519 64.6577 105.519 61.8827C105.519 59.3798 104.675 57.421 102.989 56.0064C101.301 54.5373 98.8802 53.8027 95.7244 53.8027C92.4053 53.8027 89.5759 54.4012 87.2363 55.5984C84.8966 56.7954 82.7202 58.2101 80.707 59.8423V50.7829C82.6113 49.3683 84.8149 48.1712 87.3178 47.1918C89.8752 46.2124 93.031 45.7228 96.7853 45.7228C99.6148 45.7228 102.172 46.1036 104.458 46.8654C106.742 47.6271 108.674 48.6881 110.251 50.0485C111.83 51.4087 113.054 53.041 113.924 54.9453C114.795 56.8497 115.231 58.9445 115.231 61.2298C115.231 63.1342 114.904 64.8209 114.252 66.29C113.652 67.7591 112.836 69.0649 111.802 70.2076C110.769 71.2958 109.571 72.1936 108.211 72.901C106.906 73.5539 105.519 74.0163 104.049 74.2883C105.845 74.506 107.531 74.9957 109.11 75.7575C110.741 76.4648 112.156 77.417 113.353 78.614C114.605 79.7566 115.584 81.1441 116.292 82.7764C117.053 84.4087 117.434 86.2315 117.434 88.2448Z" fill="white"/>
<path d="M72.1585 105.057H34.3703V95.6721C39.2673 91.8635 43.4568 88.4899 46.9391 85.5517C50.4214 82.6135 53.2508 79.9203 55.4272 77.4717C57.6581 74.9689 59.2904 72.6291 60.3241 70.4528C61.358 68.2219 61.8748 65.9095 61.8748 63.5154C61.8748 60.5773 60.9771 58.2375 59.1816 56.4964C57.4403 54.7553 54.9375 53.8847 51.6729 53.8847C48.7347 53.8847 45.9325 54.5921 43.2665 56.0068C40.6548 57.367 38.2062 59.1354 35.921 61.3118V51.9259C38.0974 50.0759 40.5187 48.5797 43.1848 47.437C45.8509 46.2945 49.0339 45.7231 52.7338 45.7231C55.672 45.7231 58.3382 46.1312 60.7322 46.9474C63.1263 47.7635 65.1395 48.9334 66.7718 50.4569C68.4586 51.9259 69.7371 53.7487 70.6078 55.9251C71.5327 58.0472 71.9952 60.4413 71.9952 63.1073C71.9952 66.0455 71.4239 68.8205 70.2814 71.4322C69.1387 73.9895 67.4247 76.574 65.1395 79.1857C62.9087 81.7974 60.0793 84.518 56.6514 87.3473C53.2779 90.1767 49.306 93.3052 44.7355 96.7331H72.1585V105.057Z" fill="white"/>
<path d="M113.667 2.1908L38.3543 2.1908C29.6236 2.1908 22.546 9.26843 22.546 17.9991L22.546 133.707C22.546 142.438 29.6236 149.516 38.3543 149.516H113.667C122.397 149.516 129.475 142.438 129.475 133.707V17.9991C129.475 9.26843 122.397 2.1908 113.667 2.1908Z" fill="#FF0101"/>
<path d="M113.667 66.3479H38.3543C29.6236 66.3479 22.5459 73.4255 22.5459 82.1562L22.5459 133.707C22.5459 142.437 29.6236 149.515 38.3543 149.515H113.667C122.397 149.515 129.475 142.437 129.475 133.707V82.1562C129.475 73.4255 122.397 66.3479 113.667 66.3479Z" fill="#E40202"/>
<mask id="mask1_4080_3984" style="mask-type:alpha" maskUnits="userSpaceOnUse" x="1" y="16" width="150" height="120">
<path d="M2.36461 33.9612C0.11994 24.9646 6.92532 16.2527 16.1978 16.2527L135.829 16.2527C145.101 16.2527 151.907 24.9646 149.662 33.9612L139.21 75.8526L149.662 117.744C151.907 126.741 145.101 135.452 135.829 135.452H16.1978C6.92532 135.452 0.11994 126.741 2.36461 117.744L12.8164 75.8526L2.36461 33.9612Z" fill="#FF4545"/>
</mask>
<g mask="url(#mask1_4080_3984)">
<path d="M2.84532 35.888C0.356507 25.9123 7.90224 16.2527 18.1836 16.2527L133.842 16.2527C144.125 16.2527 151.671 25.9123 149.181 35.888L139.21 75.8526L149.181 115.817C151.671 125.792 144.125 135.452 133.842 135.452H18.1836C7.90224 135.452 0.356507 125.792 2.84532 115.817L12.8164 75.8526L2.84532 35.888Z" fill="#FF0000"/>
<g opacity="0.5" filter="url(#filter2_f_4080_3984)">
<path d="M146.645 74.3578L151.703 33.811C152.965 23.6931 145.076 14.7581 134.879 14.7581L17.1471 14.7581C6.95073 14.7581 -0.938953 23.6931 0.32323 33.811L5.38135 74.3578" stroke="white" stroke-width="5.93399"/>
</g>
</g>
</g>
<path d="M59.0681 43.18V99.7654H47.1045V54.5358H46.773L33.8147 62.6589V52.0491L47.8229 43.18H59.0681ZM94.7034 101.009C89.9511 100.99 85.8619 99.8206 82.4359 97.4998C79.0282 95.1789 76.4034 91.8173 74.5614 87.415C72.7379 83.0126 71.8353 77.717 71.8537 71.528C71.8537 65.3573 72.7655 60.0985 74.5891 55.7515C76.431 51.4044 79.0558 48.0981 82.4635 45.8324C85.8895 43.5484 89.9695 42.4064 94.7034 42.4064C99.4373 42.4064 103.508 43.5484 106.916 45.8324C110.342 48.1165 112.976 51.432 114.818 55.7791C116.66 60.1077 117.571 65.3573 117.553 71.528C117.553 77.7354 116.632 83.0403 114.79 87.4426C112.967 91.8449 110.351 95.2065 106.943 97.5274C103.536 99.8483 99.4557 101.009 94.7034 101.009ZM94.7034 91.0897C97.9453 91.0897 100.533 89.4595 102.467 86.1993C104.401 82.939 105.359 78.0485 105.341 71.528C105.341 67.2362 104.899 63.6627 104.015 60.8077C103.149 57.9526 101.915 55.8067 100.312 54.37C98.7281 52.9332 96.8585 52.2149 94.7034 52.2149C91.4799 52.2149 88.9012 53.8266 86.9671 57.0501C85.033 60.2735 84.0568 65.0995 84.0384 71.528C84.0384 75.875 84.4712 79.5037 85.337 82.414C86.2211 85.3059 87.4644 87.4794 89.067 88.9346C90.6695 90.3713 92.5483 91.0897 94.7034 91.0897Z" fill="white"/>
</g>
<defs>
<filter id="filter0_f_4080_3984" x="0.547575" y="20.8174" width="150.936" height="140.347" filterUnits="userSpaceOnUse" color-interpolation-filters="sRGB">
<feFlood flood-opacity="0" result="BackgroundImageFix"/>
<feBlend mode="normal" in="SourceGraphic" in2="BackgroundImageFix" result="shape"/>
<feGaussianBlur stdDeviation="10.5964" result="effect1_foregroundBlur_4080_3984"/>
</filter>
<filter id="filter1_f_4080_3984" x="0.547636" y="-7.64682" width="150.936" height="145.57" filterUnits="userSpaceOnUse" color-interpolation-filters="sRGB">
<feFlood flood-opacity="0" result="BackgroundImageFix"/>
<feBlend mode="normal" in="SourceGraphic" in2="BackgroundImageFix" result="shape"/>
<feGaussianBlur stdDeviation="10.5964" result="effect1_foregroundBlur_4080_3984"/>
</filter>
<filter id="filter2_f_4080_3984" x="-15.4928" y="-0.92469" width="183.011" height="88.3655" filterUnits="userSpaceOnUse" color-interpolation-filters="sRGB">
<feFlood flood-opacity="0" result="BackgroundImageFix"/>
<feBlend mode="normal" in="SourceGraphic" in2="BackgroundImageFix" result="shape"/>
<feGaussianBlur stdDeviation="6.35785" result="effect1_foregroundBlur_4080_3984"/>
</filter>
<clipPath id="clip0_4080_3984">
<rect width="152" height="152" fill="white"/>
</clipPath>
</defs>
</svg>
